@startuml
'https://plantuml.com/class-diagram

' Clases
class Usuario{
-id : String
-nombre : String
-email : String
-estado : Boolean
-ultimoLogin : LocalDate
-autenticacionMultifactor : Boolean

+void cambiarPassword(String password, String newPassword)

}


class Propietario
class Conductor

abstract class Vehiculo
class Carro
class Moto
class BiciElectrica

Abstract class Pago
class Tarjeta
class Paypal
class Crypto
class Factura

class Reserva
class Publicacion

class Factura
class Notificacion
class Foto{
    -url : String
    -fecha : Date
    -formato : String
    -tamano : Int
    -ancho : Int
    -alto : Int
    -resolucion : Int
    }

class ContratoUso
class Documentacion{
-nombre : String
-tipo : String
-url : String
}


' Relaciones


Usuario <|-- Propietario
Usuario <|-- Conductor

Vehiculo <|-- Moto
Vehiculo <|-- Carro
Vehiculo <|-- BiciElectrica

Pago <|-- Tarjeta
Pago <|-- Paypal
Pago <|-- Crypto

Foto "1..5" --* "1" Vehiculo

Documentacion "1..5" --* "1" Vehiculo

Vehiculo "1" *-- "       0..*" Publicacion

Usuario "1" -- "0..*   " Reserva

Reserva "0..*" -- "1    " Vehiculo

Propietario "1" --o "1..*" Vehiculo

Factura "0..1" -- "1" Reserva
Factura "1" -- "0..*   " Pago

@enduml
